<?xml version="1.0" encoding="UTF-8" standalone="no"?>
<!-- Created with Inkscape (http://www.inkscape.org/) -->

<svg
   xmlns:dc="http://purl.org/dc/elements/1.1/"
   xmlns:cc="http://creativecommons.org/ns#"
   xmlns:rdf="http://www.w3.org/1999/02/22-rdf-syntax-ns#"
   xmlns:svg="http://www.w3.org/2000/svg"
   xmlns="http://www.w3.org/2000/svg"
   xmlns:xlink="http://www.w3.org/1999/xlink"
   xmlns:sodipodi="http://sodipodi.sourceforge.net/DTD/sodipodi-0.dtd"
   xmlns:inkscape="http://www.inkscape.org/namespaces/inkscape"
   width="208.85864"
   height="303.33374"
   viewBox="0 0 208.85864 303.33373"
   id="svg2"
   version="1.1"
   inkscape:version="0.91 r13725"
   sodipodi:docname="card_backside.svg">
  <defs
     id="defs4">
    <linearGradient
       id="linearGradient3441">
      <stop
         id="stop3443"
         stop-color="#2dbb00"
         offset="0" />
      <stop
         id="stop3445"
         stop-opacity="0"
         stop-color="#00d400"
         offset="1" />
    </linearGradient>
    <pattern
       id="pattern3447"
       width="20.05017"
       patternUnits="userSpaceOnUse"
       patternTransform="matrix(.65287,.75747,-.75747,.65287,71.37579,185.74299)"
       height="20.99685">
      <path
         id="path3449"
         fill="#ffd400"
         d="m0,0h20.05017v20.99686h-20.05017z" />
      <path
         id="path3451"
         transform="matrix(.98736,-.15852,.15852,.98736,-207.43306,-94.09124)"
         fill="#b9d400"
         d="m206.03684,145.96967-12.40861,1.25173-5.02494-11.41448 9.30302-8.30627 10.77453,6.28093-2.644,12.18809z" />
    </pattern>
    <radialGradient
       id="radialGradient3453"
       xlink:href="#linearGradient5220"
       r=".17765"
       gradientUnits="userSpaceOnUse"
       gradientTransform="matrix(1,0,0,1.57114,-59.07003,-1.82137)"
       cy="98.65771"
       cx="192.95435" />
    <radialGradient
       id="radialGradient3455"
       xlink:href="#linearGradient5220"
       r=".68098"
       gradientUnits="userSpaceOnUse"
       gradientTransform="matrix(1,0,0,2.80213,-59.07003,-127.20955)"
       cy="100.845"
       cx="193.81297" />
  </defs>
  <sodipodi:namedview
     id="base"
     pagecolor="#ffffff"
     bordercolor="#666666"
     borderopacity="1.0"
     inkscape:pageopacity="0.0"
     inkscape:pageshadow="2"
     inkscape:zoom="1.4"
     inkscape:cx="51.746033"
     inkscape:cy="130.83181"
     inkscape:document-units="px"
     inkscape:current-layer="layer1"
     showgrid="false"
     inkscape:window-width="1280"
     inkscape:window-height="960"
     inkscape:window-x="1280"
     inkscape:window-y="27"
     inkscape:window-maximized="1"
     fit-margin-top="0"
     fit-margin-left="0"
     fit-margin-right="0"
     fit-margin-bottom="0"
     units="px"
     showguides="true"
     inkscape:guide-bbox="true" />
  <metadata
     id="metadata7">
    <rdf:RDF>
      <cc:Work
         rdf:about="">
        <dc:format>image/svg+xml</dc:format>
        <dc:type
           rdf:resource="http://purl.org/dc/dcmitype/StillImage" />
        <dc:title></dc:title>
      </cc:Work>
    </rdf:RDF>
  </metadata>
  <g
     inkscape:label="Ebene 1"
     inkscape:groupmode="layer"
     id="layer1"
     transform="translate(0,-749.02847)">
    <g
       id="g7"
       style="clip-rule:nonzero;fill-rule:nonzero;stroke:none;stroke-miterlimit:4"
       transform="matrix(1.25,0,0,1.25,0,749.02847)">
      <g
         id="g9" />
    </g>
    <g
       style="clip-rule:nonzero;fill-rule:nonzero;stroke:#000000;stroke-miterlimit:4"
       id="g15"
       transform="matrix(1.25,0,0,1.25,0,749.02847)" />
    <g
       style="clip-rule:nonzero;fill-rule:nonzero;stroke:#000000;stroke-miterlimit:4"
       id="g19"
       transform="matrix(1.25,0,0,1.25,0,749.02847)" />
    <g
       id="g23"
       style="clip-rule:nonzero;fill-rule:nonzero;stroke:none;stroke-miterlimit:4"
       transform="matrix(1.25,0,0,1.25,0,749.02847)">
      <g
         id="g25" />
    </g>
    <g
       id="g31"
       style="clip-rule:nonzero;fill-rule:nonzero;stroke:none;stroke-miterlimit:4"
       transform="matrix(1.25,0,0,1.25,0,749.02847)">
      <g
         id="g33" />
    </g>
    <g
       id="g4337">
      <g
         id="g4333">
        <path
           id="path5"
           d="m 208.54614,1043.4633 c 0,4.7217 -3.85864,8.5864 -8.58887,8.5864 l -191.0687203,0 c -4.7186278,0 -8.5760497,-3.8647 -8.5760497,-8.5864 l 0,-285.53468 c 0,-4.72168 3.8574219,-8.58765 8.5760497,-8.58765 l 191.0687203,0 c 4.73023,0 8.58887,3.86597 8.58887,8.58765 l 0,285.53468 z"
           style="clip-rule:nonzero;fill:#ffffff;fill-rule:nonzero;stroke:#000000;stroke-width:0.625;stroke-miterlimit:4"
           inkscape:connector-curvature="0" />
        <path
           id="path5-2"
           d="m 198.59394,1032.1708 c 0,4.3601 -3.46658,7.9289 -7.7162,7.9289 l -171.655275,0 c -4.239194,0 -7.704685,-3.5688 -7.704685,-7.9289 l 0,-263.67191 c 0,-4.36015 3.465491,-7.93011 7.704685,-7.93011 l 171.655275,0 c 4.24962,0 7.7162,3.56996 7.7162,7.93011 l 0,263.67191 z"
           style="clip-rule:nonzero;fill:#ff7800;fill-rule:nonzero;stroke:#000000;stroke-width:1.869;stroke-miterlimit:4;fill-opacity:1;stroke-dasharray:none"
           inkscape:connector-curvature="0" />
      </g>
      <g
         transform="matrix(0.82989,0,0,0.84888,-264.32023,750.63093)"
         id="g3457">
        <path
           style="fill:#ff7800;stroke:#000000;stroke-width:6.47309017;stroke-linecap:round;stroke-linejoin:round"
           inkscape:connector-curvature="0"
           d="m 443.21592,191.56537 a 46.21049,42.50016 0 1 1 -92.42098,0 46.21049,42.50016 0 1 1 92.42098,0 z"
           transform="matrix(1.04268,0,0,1.08312,18.6875,-16.90496)"
           id="path3459" />
        <path
           style="fill:#008000;fill-rule:evenodd;stroke:#000000;stroke-width:5.7329998;stroke-linejoin:round"
           inkscape:connector-curvature="0"
           d="m 452.22712,169.29343 c 0.15609,0.0885 20.35381,-8.58683 30.74771,-6.05805 10.3939,2.52878 32.9992,-9.09729 49.31263,-25.35644 -24.77076,-3.49659 -50.61176,-0.87286 -61.99895,7.11081 -11.38719,7.98367 -18.06139,24.30368 -18.06139,24.30368 z"
           id="path3461" />
        <path
           style="fill:#008000;fill-rule:evenodd;stroke:#000000;stroke-width:5.7329998;stroke-linejoin:round"
           inkscape:connector-curvature="0"
           d="m 454.25109,167.15286 c -0.17689,-0.0301 -10.33895,-19.52223 -19.99024,-24.13528 -9.65129,-4.61305 -19.81278,-27.91347 -22.17032,-50.82483 21.40128,12.95386 39.76175,31.32596 43.53547,44.71126 3.77372,13.3853 -1.37491,30.24885 -1.37491,30.24885 z"
           id="path3463" />
        <path
           style="fill:#ffffff"
           inkscape:connector-curvature="0"
           d="m 430.55934,156.18854 c 4.5015,4.58151 -5.00275,0.37316 -17.90085,11.90481 -14.64383,13.09788 -10.20007,24.09938 -14.95974,19.82333 -4.78001,-4.29429 -1.42269,-17.91363 6.97961,-25.63835 8.4023,-7.72472 21.4022,-10.6482 25.88098,-6.08979 z"
           id="path3465" />
      </g>
    </g>
  </g>
</svg>
